<?xml version="1.0" encoding="utf-8"?>
<!-- Generator: Adobe Illustrator 21.0.1, SVG Export Plug-In . SVG Version: 6.00 Build 0)  -->
<svg version="1.0" id="Слой_1" xmlns="http://www.w3.org/2000/svg" xmlns:xlink="http://www.w3.org/1999/xlink" x="0px" y="0px"
	 viewBox="0 0 2500 2500" style="enable-background:new 0 0 2500 2500;" xml:space="preserve">
<style type="text/css">
	.st0{fill:#0077A6;}
	.st1{fill:#FFFFFF;}
</style>
<rect x="-361.3" y="-235.3" class="st0" width="3287.3" height="3089.4"/>
<g>
	<path class="st0" d="M1111.9,1609.9L1111.9,1609.9l-76.6,0l-49.4-64.7l-48.2,64.7H622.8v-284.6h313.5l51.4,66.4l51.6-66.4h121.6
		l0,0h106.3c31.8,0,58.9,10.1,78.4,29.2c8.4,8.2,15.1,17.9,19.9,28.7v-58h156.3c27.7,0,53.4,8.9,72.3,25
		c9.6,8.2,17.2,17.9,22.6,28.8v-53.8h238.8v43.4c3.4-5.1,7.4-9.9,12-14.3c20.3-19.4,50.1-29.2,88.4-29.2h149.3l-17.9,38.3
		c2.5-3.2,5.3-6.3,8.3-9.2c20.3-19.4,50.1-29.2,88.4-29.2h149.3l-43,91.9h-116.1c-5,0-7.5,1-8,1.4c-0.1,0.2-0.1,0.5-0.1,1.1
		c0,2.4,1.6,3.7,4.9,3.7h58.9c30.9,0,55.2,8.7,72.2,25.8c15.6,15.7,23.9,37.7,23.9,63.5c0,27.2-8.6,50.8-24.9,68.2
		c-17.7,18.9-43.4,29-74.2,29h-150.5V1577c-1.1,1.3-2.3,2.7-3.5,3.9c-17.7,18.9-43.4,29-74.2,29h-460.9l-74.3-88.1v88.1h-98.2
		v-137.9c-5.8,13-14.3,24.2-25.4,33.5c-20.4,17-48.4,26-80.9,26h-47.4v78.5H1111.9z M1616.7,1558.6v-91.7
		c-4.3,8.6-9.9,16.5-16.7,23.4c-7.8,8-17.1,14.5-27,19.3L1616.7,1558.6z M861.6,1519.9v30.7l65.5-81.5l-65.5-81.6v29.3h-140v6.5
		h136.7v88.3H721.6v8.2H861.6z M1111.9,1549.6v-163.4l-65.3,81.3L1111.9,1549.6z M2218.8,1519.9c6,0,7.9-1.6,8.1-1.7
		c0.1-0.1,0.3-0.3,0.3-1.1c0-3-8-3-8.4-3h-56.2c-27.8,0-50.8-8.6-67.1-23.8c1.5,7.1,2.3,14.6,2.3,22.5c0,2.4-0.1,4.8-0.2,7.2H2218.8
		z M1990.7,1519.9c6,0,7.9-1.6,8.1-1.7c0.1-0.1,0.3-0.3,0.3-1.1c0-3-8-3-8.4-3h-56.2c-38.5,0-67.9-16.5-82.9-44.5v42.2h-136.1v8.2
		h132.8H1990.7z M1938.1,1418.6c-0.1,0.2-0.1,0.5-0.1,1.1c0,2.4,1.6,3.7,4.9,3.7h58.9c29.3,0,52.6,7.8,69.5,23.2
		c-1.8-7.8-2.7-16.2-2.7-25c0-8.1,0.8-15.8,2.5-23.1l-8.8,18.7h-116.1C1941.1,1417.2,1938.7,1418.2,1938.1,1418.6z M1262.4,1438.7
		c3,0,12.9-0.8,12.9-10.6c0-10.6-9.5-10.6-12.7-10.6h-50.9v21.3H1262.4z M1517.6,1433.2c3.1,0,10.5-2.8,10.5-8.2
		c0-2.4-3.9-8.2-11.4-8.2h-53.1v16.3H1517.6z M1840.4,1423.4c0-0.6,0-1.2,0-1.8c0-1.6,0-3.1,0.1-4.7h-125v6.5H1840.4z
		 M1786.8,1174.8l-19.6-49.8h-90.2l-19.7,49.8H1548l0,0h-14.7c-37.5,0-69.3-14.3-91.9-41.4c-12.5-14.9-21.5-32.9-26.9-53.3v94.7
		h-53.1l0,0H1237l-74.3-88.1v88.1h-98.2v0l-238.8,0V890.1h238.8v0h156.3c27.7,0,53.4,8.9,72.3,25c9.2,7.9,16.6,17.1,22,27.5v-52.6
		h99.5v96.5c5.7-21.6,15.6-40.3,29.4-55.3c24.7-26.9,61.5-41.2,106.4-41.2h86.7v77.8l33.4-77.7h104.8l84.2,196V890.1h106.8
		l73.1,113.2V890.1h98.2v284.6h-104.3l-75.7-117.2v117.2l-60.1,0l0,0H1786.8z M1315.1,1122.8v-89.7c-4.2,8.1-9.6,15.5-16,22.2
		c-7.8,8-17.1,14.5-27,19.3L1315.1,1122.8z M1064.5,1084.8v-103h-140v6.5h136.7v88.3H924.4v8.2H1064.5z M1547.8,985
		c-24.3,0-40,19.3-40,49.1c0,34.4,15.6,50.4,49.1,50.4h30l42.8-99.4H1547.8z M1730.2,1035l-8.4-20.8l-8.4,20.8H1730.2z
		 M1216.6,998.1c3.1,0,10.5-2.8,10.5-8.2c0-2.4-3.9-8.2-11.4-8.2h-53.1v16.3H1216.6z M399.5,1174.8l-19.6-49.8h-90.2l-19.7,49.8
		H160.8l122.4-284.6H388l84.3,196.3V890l129.6,0.5l44.6,124.4l43.6-124.8h128.9v284.6h-98.2v-98l-35.2,98h-79.8l-35.4-98.2v98.2
		h-60.2l0,0H399.5z M342.9,1035l-8.4-20.8l-8.4,20.8H342.9z"/>
	<path class="st1" d="M2119.5,908.1v248.6h-76.5l-103.5-160.3v160.3l-62.2,0V908.1h79l100.9,156.2V908.1H2119.5 M1619,908.1V967
		h-71.2c-34,0-58,26.5-58,67.1c0,48.2,27.5,68.4,67.1,68.4h16.4l-26.2,54.3h-13.7c-66.3,0-106.5-52.2-106.5-123.3
		c0-72.8,39.8-125.3,123.5-125.3H1619 M1396.5,908.1v248.6h-63.5V908.1H1396.5 M1046.5,908.1v55.6h-140v42.5h136.7v52.3H906.4v44.2
		h140v54H843.6V908.1H1046.5 M801.1,908.1v248.6h-62.2V973.5l-65.9,183.2h-54.5l-66.1-183.2v183.2h-62.2V908.1l98.9,0.4l57.5,160.3
		L703,908.1H801.1 M1763.3,908.1l106.8,248.6H1799l-19.6-49.8h-114.7l-19.7,49.8h-69.6l106.9-248.6H1763.3 M1686.8,1053h70l-35-87
		L1686.8,1053 M1220.8,908.1c45.8,0,86.9,28.3,86.9,80.7c0,44.7-34.6,73.5-68.2,76.4l81.8,91.6h-76l-74.5-88.3h-26.2v88.3h-62.2
		V908.1H1220.8 M1144.6,1016.1h72c12.5,0,28.5-9.7,28.5-26.2c0-12.8-12.4-26.2-29.4-26.2h-71.1V1016.1 M376.1,908.1L483,1156.8
		h-71.2l-19.6-49.8H277.5l-19.7,49.8h-69.6L295,908.1H376.1 M299.5,1053h70l-35-87L299.5,1053 M2305.1,1343.2l-26.2,55.9h-104.7
		c-20,0-26.2,10.5-26.2,20.5c0,10.3,7.6,21.7,22.9,21.7h58.9c54.5,0,78.1,30.9,78.1,71.4c0,43.5-26.3,79.1-81.1,79.1h-132.5v-54
		h124.4c18.4,0,26.4-9.9,26.4-20.9c0-10.5-7.9-21-26.4-21h-56.2c-48.9,0-76.1-29.8-76.1-74.5c0-39.9,24.9-78.3,97.5-78.3H2305.1
		 M2077,1343.2l-26.2,55.9h-104.7c-20,0-26.2,10.5-26.2,20.5c0,10.3,7.6,21.7,22.9,21.7h58.9c54.5,0,78.1,30.9,78.1,71.4
		c0,43.5-26.3,79.1-81.1,79.1h-132.5v-54h124.4c18.4,0,26.4-9.9,26.4-20.9c0-10.5-7.9-21-26.4-21h-56.2c-48.9,0-76.1-29.8-76.1-74.5
		c0-39.9,24.9-78.3,97.5-78.3H2077 M1837.5,1343.2v55.6h-140v42.5h136.1v52.3h-136.1v44.2h140v54l-202.8,0v-248.6H1837.5
		 M1521.8,1343.2c45.8,0,86.9,28.3,86.9,80.7c0,44.7-34.6,73.5-68.2,76.4l81.8,91.6h-76l-74.5-88.3h-26.2v88.3h-62.2v-248.6H1521.8
		 M1445.6,1451.2h72c12.5,0,28.5-9.7,28.5-26.2c0-12.8-12.4-26.2-29.4-26.2h-71.1V1451.2 M1123.4,1343.2l-99.8,124.3l98.9,124.3
		h-78.3l-58.5-76.6l-57,76.6h-77.2l98.8-122.8l-101.1-125.9h78.3l60.2,77.8l60.4-77.8H1123.4 M843.6,1343.2v55.6h-140v42.5h136.7
		v52.3H703.6v44.2h140v54l-202.8,0v-248.6H843.6 M1267.2,1343.3c56.3,0,89.3,36.3,89.3,83.6c0,57.1-42,86.5-97.3,86.5h-65.4v78.5
		h-63.8v-248.6H1267.2 M1193.7,1456.7h68.7c18.2,0,30.9-12,30.9-28.6c0-17.7-12.8-28.6-30.7-28.6h-68.9V1456.7 M454.3,872v36.1v90.8
		l-45.1-105l-9.4-21.8h-23.7H295h-23.7l-9.4,21.8L155,1142.6l-21.6,50.2h54.7h69.6h24.5l9-22.7l10.7-27.1h65.7l10.6,27l9,22.8h24.5
		H483h54.7l0,0h14.9h36v-13.3l4.8,13.3h25.3h54.5h25.3l4.6-12.7v12.7h36h62.2h6.5h36h202.8v0h36h62.2h36v-36v-20.9l37.2,44.1
		l10.8,12.8h16.7h76h80.4l0,0h30.9v-36v-6.3c22.4,24,52.8,39,88.4,41.9l-0.2,0.5h54.7h69.6h24.5l9-22.7l10.7-27.1h65.7l10.6,27
		l9,22.8h24.5h71.2h54.7l0,0l14.8,0l36,0v-36v-38.1l37.2,57.7l10.6,16.5h19.6h76.5h36v-36V908.1v-36h-36h-62.2h-36v36v34.1
		l-34.7-53.7l-10.6-16.5h-19.6h-79h-36v36v90.6l-45-104.8l-9.4-21.8h-23.7h-81.1h-23.7l-3.6,8.3v-8.4h-36h-68.7
		c-48.9,0-89.6,15.5-117.8,45v-9v-36h-36h-63.5h-36v23.3c-21.2-15.1-47.9-23.3-76.3-23.3h-138.3v0h-36H843.6h-6.5h-36H703h-25.6
		l-8.4,24.1L646.3,961l-23.2-64.7l-8.5-23.7l-25.2-0.1l-98.9-0.4L454.3,872L454.3,872z M1556.8,1066.4c-23.5,0-31.1-7.9-31.1-32.4
		c0-10.7,2.6-19.6,7.3-25c3.6-4.1,8.4-6.1,14.7-6.1h54.5l-27.3,63.4h-1.8H1556.8L1556.8,1066.4z M2361.7,1307.2h-56.6h-121
		c-20,0-38,2.5-54,7.4l3.4-7.4H2077h-121c-33,0-60.6,6.7-82.4,20v-20h-36h-202.8h-36v23.8c-21.3-15.4-48.2-23.8-76.9-23.8h-138.3
		h-36v25.1c-21.6-16.5-49.1-25.1-80.2-25.1h-68.8l0,0h-75.1h-75.2h-17.6l-10.8,13.9l-31.9,41.1l-31.8-41.1l-10.8-14h-17.7h-47.8h-36
		H640.8h-36v36v248.6v36h36l202.8,0h36l49.1,0h18.1l10.8-14.5l28.5-38.3l29.5,38.6l10.8,14.2h17.8h49.7v0h36h63.8h36v-36v-42.5h29.4
		c35.4,0,65.6-9.7,88.3-26.9v69.4v36h36h62.2h36v-36V1571l37.2,44.1l10.8,12.8h16.7h52.4h36l195.6,0l0,0h36h132.5
		c25.2,0,44.7-5.8,59.7-13.6v13.6h36h132.5c45.4,0,72.5-18.8,87.3-34.7c10-10.7,17.7-23.4,22.7-37.8c4.6-13.2,7-27.6,7-42.7
		c0-30.7-10.1-57.1-29.1-76.2c-2.8-2.8-6-5.6-9.7-8.5l6.4-13.6l26.2-55.9L2361.7,1307.2L2361.7,1307.2z M876.4,1434.8h0.2l27.5,34.2
		l-26.4,32.8h-1.3v-8.2v-52.3V1434.8L876.4,1434.8z M1069.7,1467.6l24.2-30.2v60.7L1069.7,1467.6L1069.7,1467.6z"/>
</g>
</svg>
