<?xml version="1.0" encoding="utf-8"?>
<!-- Generator: Adobe Illustrator 21.0.1, SVG Export Plug-In . SVG Version: 6.00 Build 0)  -->
<svg version="1.1" xmlns="http://www.w3.org/2000/svg" xmlns:xlink="http://www.w3.org/1999/xlink" x="0px" y="0px"
	 viewBox="0 0 618.5 143.3" style="enable-background:new 0 0 618.5 143.3;" xml:space="preserve">
<style type="text/css">
	.st0{display:none;}
	.st1{display:inline;}
	.st2{fill:#292930;}
	.st3{fill:#FFFFFF;}
	.st4{fill:#3577F0;}
	.st5{fill:url(#SVGID_3_);}
	.st6{fill:url(#SVGID_4_);}
</style>
<g id="BACKGROUND" class="st0">
	<g class="st1">
		<g>
			<rect x="-33.4" y="-122.7" class="st2" width="693.3" height="500"/>
		</g>
	</g>
</g>
<g id="OBJECTS">
	<g>
		<g>
			<g>
				<g>
					<path class="st3" d="M257.7,98H202c2,10.4,10.6,17,23,17c8,0,14.2-2.5,19.3-7.7l8.9,10.2c-6.4,7.6-16.4,11.6-28.6,11.6
						c-23.8,0-39.2-15.3-39.2-36.4s15.6-36.3,36.7-36.3c20.7,0,35.9,14.5,35.9,36.7C258,94.4,257.8,96.4,257.7,98z M201.9,87h40.3
						c-1.3-10.2-9.2-17.3-20.1-17.3C211.3,69.7,203.5,76.6,201.9,87z"/>
					<path class="st3" d="M267.7,118.3l6-13.4c7.4,6,19.3,10.2,30.7,10.2c14.5,0,20.6-5.2,20.6-12.1c0-20.1-55.3-6.9-55.3-41.5
						c0-15,12-27.8,37.5-27.8c11.2,0,22.9,2.9,31,8.2l-5.5,13.4c-8.4-4.9-17.5-7.3-25.7-7.3c-14.4,0-20.2,5.6-20.2,12.6
						c0,19.8,55.2,6.9,55.2,41.1c0,14.9-12.1,27.7-37.6,27.7C289.9,129.5,275.4,125,267.7,118.3z"/>
					<path class="st3" d="M400.2,124.3c-4,3.2-10,4.8-16,4.8c-15.6,0-24.5-8.2-24.5-23.9V71h-11.7V57.7h11.7V41.5h16.6v16.2h19V71
						h-19v33.8c0,6.9,3.5,10.6,9.8,10.6c3.5,0,6.8-0.9,9.3-2.9L400.2,124.3z"/>
					<path class="st3" d="M405.7,92.7c0-21.3,16-36.3,37.8-36.3c22.1,0,37.9,15,37.9,36.3s-15.8,36.4-37.9,36.4
						C421.6,129.1,405.7,113.9,405.7,92.7z M464.6,92.7c0-13.6-9-22.2-21.1-22.2c-12,0-21,8.6-21,22.2s9,22.2,21,22.2
						C455.5,114.9,464.6,106.2,464.6,92.7z"/>
					<path class="st3" d="M538.3,56.4v15.8c-1.5-0.3-2.7-0.4-3.9-0.4c-12.6,0-20.6,7.4-20.6,21.9v34.4h-16.6v-71h15.8v10.4
						C517.9,60.1,526.5,56.4,538.3,56.4z"/>
					<path class="st3" d="M618.2,98h-55.7c2,10.4,10.6,17,23,17c8,0,14.2-2.5,19.3-7.7l8.9,10.2c-6.4,7.6-16.4,11.6-28.6,11.6
						c-23.8,0-39.2-15.3-39.2-36.4s15.6-36.3,36.7-36.3c20.7,0,35.9,14.5,35.9,36.7C618.5,94.4,618.4,96.4,618.2,98z M562.4,87h40.3
						c-1.3-10.2-9.2-17.3-20.1-17.3C571.8,69.7,564,76.6,562.4,87z"/>
				</g>
			</g>
		</g>
		<g>
			<g>
				<g>
					<defs>
						<path id="SVGID_1_" d="M117.5,48.3c0.9,0,1.6,0.6,1.8,1.4l21.1,85.9c0.2,0.8-0.1,1.3-0.3,1.6c-0.2,0.3-0.7,0.7-1.5,0.7H13.8
							c-0.8,0-1.3-0.5-1.5-0.7c-0.2-0.3-0.5-0.8-0.3-1.6l21.1-85.9c0.2-0.8,1-1.4,1.8-1.4H117.5 M117.5,42.9H34.9
							c-3.4,0-6.3,2.3-7.1,5.6L6.7,134.3c-1.1,4.6,2.4,9.1,7.1,9.1h124.8c4.7,0,8.2-4.5,7.1-9.1l-21.1-85.9
							C123.8,45.2,120.9,42.9,117.5,42.9L117.5,42.9z"/>
					</defs>
					<use xlink:href="#SVGID_1_"  style="overflow:visible;fill:#FFFFFF;"/>
					<clipPath id="SVGID_2_">
						<use xlink:href="#SVGID_1_"  style="overflow:visible;"/>
					</clipPath>
				</g>
			</g>
			<path class="st3" d="M94.1,6.5C87.2-0.3,76.6,0,76.3,0c-4.5,0-7.3,0.9-7.3,0.9l0,0C43.4,7.2,39.1,42.9,39.1,42.9h8.6
				c0-19.6,7.3-30.3,14.6-36.1c0.1-0.1,6.1-4.8,13.3-5.4c0,0,3.2-0.5,7.9,0.5C89.3,3.1,94.1,6.5,94.1,6.5z"/>
			<path class="st3" d="M78.9,2.5L78.9,2.5l-0.3,0c-3.1-0.1-6.2,0.3-9,1.4c-1.9,0.7-3.9,1.8-5.6,3.4c0,0,12.1-7.3,23.2-0.8
				c0.1,0.1,0.2,0.1,0.3,0.2C87.6,6.9,87.8,7,88,7.1c7.7,5,16.4,15.2,16.4,35.7h8.2C112.5,42.9,107.9,4.8,78.9,2.5z"/>
			<path class="st4" d="M147.3,93.1c-0.9-16.5-16-17.3-16-17.3l2,8c5.2,6.2,4.9,17.5-14.5,28.8c-8.8,5.1-24.6,9.6-37.9,8.6
				c-7-0.5-13.2-2.6-17.3-6.8c6.5-0.4,17.6-2.5,30.2-11c5.9-4,10.6-9.5,13.5-15.6c0.1-0.1,0.1-0.3,0.2-0.4c0.1-0.2,0.2-0.3,0.2-0.5
				c0-0.1,0.1-0.2,0.1-0.2c0,0,0-0.1,0-0.1l0,0c0.1-0.2,0.2-0.4,0.2-0.6c0-0.1,0.1-0.2,0.1-0.3c5.4-13.9-2.9-29.4-17.4-32.7
				c-3.6-0.8-7.3-1.2-11.2-1c-21.2,0.9-38.5,18.1-39.4,39.3c-0.1,2.2,0,4.4,0.2,6.5c-5.2-1.9-10.7-4.7-15.7-9l8.3-4.9l-15.8-2
				c-0.1-0.1-0.1-0.1-0.2-0.2l0,0.1L0,79.6L15.8,109l1.4-8.4c5.2,4,14.9,9.2,28.1,12c4.1,7.3,10.6,13.3,18.3,17.1
				c5.4,2.7,11.4,4.3,17.8,4.7C122.9,136.9,148.2,108.5,147.3,93.1z M78.3,65.7c0.2,0,0.5,0,0.7-0.1c0.2,0,0.4,0,0.6,0
				c0.2,0,0.4,0,0.6,0c2.5-0.1,8.8,0,12.2,3.4c0.9,1,1.8,2.3,2.3,4.1c2.2,8.1-5.2,28.6-37.4,28.3c-0.4,0-1.2-0.1-2.3-0.2
				c-0.7-2.5-1.2-5.2-1.2-7.9C53.7,78.9,64.5,67.2,78.3,65.7z"/>
			<linearGradient id="SVGID_3_" gradientUnits="userSpaceOnUse" x1="84.9434" y1="129.5836" x2="49.1598" y2="112.7761">
				<stop  offset="0" style="stop-color:#3568F0;stop-opacity:0"/>
				<stop  offset="1" style="stop-color:#3568F0"/>
			</linearGradient>
			<path class="st5" d="M88.7,121.3L84,134.4c-0.8,0-1.7-0.1-2.5-0.1c-15.6-1-29.1-9.3-36.1-21.7c0,0,8.9,1.8,18.3,1.8
				C69.3,120.2,78.8,121.9,88.7,121.3z"/>
			<linearGradient id="SVGID_4_" gradientUnits="userSpaceOnUse" x1="51.0122" y1="75.7558" x2="45.5904" y2="106.6598">
				<stop  offset="0" style="stop-color:#3568F0;stop-opacity:0"/>
				<stop  offset="1" style="stop-color:#3568F0"/>
			</linearGradient>
			<path class="st6" d="M53.7,93.2c0,2.8,0.4,5.4,1.2,7.9c-6.8-0.7-14.4-3.4-14.4-3.4c-0.2-2.1-0.3-4.3-0.2-6.5
				c0.3-7,2.4-13.5,5.8-19.2l12.6,5.3C55.6,81.8,53.7,87.3,53.7,93.2z"/>
			<g>
				<path class="st3" d="M42.3,53.5c0.9,0,1.7,0.8,1.7,1.7c0,0.9-0.8,1.7-1.7,1.7c-0.9,0-1.7-0.8-1.7-1.7
					C40.6,54.3,41.3,53.5,42.3,53.5 M42.3,51.4c-2.1,0-3.9,1.7-3.9,3.9c0,2.1,1.7,3.9,3.9,3.9c2.1,0,3.9-1.7,3.9-3.9
					C46.2,53.1,44.4,51.4,42.3,51.4L42.3,51.4z"/>
				<path class="st3" d="M110.2,53.5c0.9,0,1.7,0.8,1.7,1.7c0,0.9-0.8,1.7-1.7,1.7c-0.9,0-1.7-0.8-1.7-1.7
					C108.4,54.3,109.2,53.5,110.2,53.5 M110.2,51.4c-2.1,0-3.9,1.7-3.9,3.9c0,2.1,1.7,3.9,3.9,3.9c2.1,0,3.9-1.7,3.9-3.9
					C114,53.1,112.3,51.4,110.2,51.4L110.2,51.4z"/>
			</g>
		</g>
	</g>
</g>
</svg>
