<?xml version="1.0" encoding="utf-8"?>
<!-- Generator: Adobe Illustrator 21.0.1, SVG Export Plug-In . SVG Version: 6.00 Build 0)  -->
<svg version="1.0" id="Слой_1" xmlns="http://www.w3.org/2000/svg" xmlns:xlink="http://www.w3.org/1999/xlink" x="0px" y="0px"
	 viewBox="0 0 2308.3 1048.5" style="enable-background:new 0 0 2308.3 1048.5;" xml:space="preserve">
<style type="text/css">
	.st0{fill:#2566AF;}
	.st1{fill:#E6A540;}
	.st2{fill:none;}
</style>
<g>
	<path class="st0" d="M1014.2,878.2H842.6l107.3-659.4h171.7L1014.2,878.2z M698.1,218.8L534.5,672.3l-19.4-97.7l0,0l-57.8-296.5
		c0,0-7-59.4-81.4-59.4H105.3l-3.2,11.2c0,0,82.7,17.2,179.6,75.4l149.2,572.9h178.9l273.1-659.4L698.1,218.8L698.1,218.8z
		 M2048.5,878.2h157.6l-137.4-659.4h-138c-63.7,0-79.3,49.1-79.3,49.1l-256,610.3h179l35.8-97.9h218.2L2048.5,878.2L2048.5,878.2z
		 M1859.6,644.9l90.2-246.8l50.7,246.8H1859.6z M1608.8,377.3l24.5-141.6c0,0-75.6-28.8-154.4-28.8c-85.2,0-287.5,37.2-287.5,218.3
		c0,170.4,237.5,172.5,237.5,262s-213,73.4-283.3,17L1120,852.3c0,0,76.7,37.2,193.8,37.2c117.2,0,293.9-60.7,293.9-225.8
		c0-171.5-239.6-187.4-239.6-262C1368.1,327.3,1535.3,336.9,1608.8,377.3L1608.8,377.3z"/>
</g>
<path class="st1" d="M515.1,574.7l-57.8-296.5c0,0-7-59.4-81.4-59.4H105.3l-3.2,11.2c0,0,130.1,27,254.8,127.9
	C476.2,454.4,515.1,574.7,515.1,574.7z"/>
<path class="st2" d="M-95.9-701.7h2500v2500h-2500V-701.7z"/>
</svg>
